<?xml version="1.0" encoding="utf-8"?>
<!-- Generator: Adobe Illustrator 27.3.1, SVG Export Plug-In . SVG Version: 6.00 Build 0)  -->
<svg version="1.1" id="Layer_1" xmlns="http://www.w3.org/2000/svg" xmlns:xlink="http://www.w3.org/1999/xlink" x="0px" y="0px"
	 viewBox="0 0 500 471.3" style="enable-background:new 0 0 500 471.3;" xml:space="preserve">
<style type="text/css">
	.st0{fill:none;stroke:#000000;stroke-width:13.2;stroke-linecap:round;stroke-miterlimit:10;}
</style>
<circle class="st0" cx="248.15" cy="237.74" r="84.7"/>
<path class="st0" d="M341.1,371.81c-4.93-5.54-12.79-7.41-19.68-4.69l-32.9,12.99c-6.74,2.66-11.17,9.18-11.17,16.43v13.98
	c0,9.18-7.03,16.82-16.17,17.6l-20.71,1.75c-10.31,0.87-19.15-7.26-19.15-17.6v-15.06c0-7.18-4.35-13.65-11-16.36l-35.64-14.51
	c-6.76-2.75-14.51-1.06-19.51,4.25l-9.42,10c-6.69,7.1-17.88,7.43-24.97,0.74l-16.69-15.74c-7.34-6.93-7.4-18.59-0.11-25.59
	l9.94-9.55c5.07-4.87,6.77-12.28,4.33-18.87l-12.18-32.91c-2.48-6.71-8.76-11.25-15.91-11.52L75.1,266.6
	c-9.49-0.35-17.01-8.15-17.01-17.65v-21.98c0-9.17,7.02-16.82,16.16-17.6l12.33-1.05c6.02-0.51,11.36-4.07,14.16-9.43l18.01-34.51
	c3.53-6.77,2.31-15.05-3.02-20.51l-10.89-11.15c-6.61-6.77-6.71-17.55-0.23-24.45l15.49-16.46c6.6-7.01,17.6-7.45,24.73-0.98
	L159,103.71c4.86,4.41,11.76,5.76,17.92,3.51l30.34-11.08c6.56-2.4,11.1-8.43,11.56-15.4l1.37-20.28
	c0.62-9.27,8.33-16.47,17.62-16.47h22.98c9.63,0,17.49,7.72,17.66,17.35l0.29,16.44c0.13,7.24,4.66,13.66,11.43,16.21l31.63,11.92
	c6.68,2.52,14.22,0.76,19.11-4.45l8.27-8.82c6.87-7.33,18.46-7.46,25.49-0.28l16.57,16.9c6.33,6.46,6.76,16.65,1,23.62l-10.26,12.42
	c-3.97,4.8-5.11,11.34-3.02,17.2l11.91,33.29c2.51,7.02,9.17,11.71,16.63,11.71h16.73c9.75,0,17.66,7.91,17.66,17.66v23.14
	c0,9.75-7.91,17.66-17.66,17.66h-15.18c-7.02,0-13.37,4.15-16.18,10.58l-13.9,31.78c-2.59,5.92-1.74,12.79,2.22,17.9l11.56,14.91
	c5.25,6.78,4.88,16.34-0.88,22.69l-17.55,16.76c-6.2,5.92-15.87,6.17-22.36,0.58L341.1,371.81z"/>
</svg>
