<?xml version="1.0" encoding="utf-8"?>
<!-- Generator: Adobe Illustrator 27.3.1, SVG Export Plug-In . SVG Version: 6.00 Build 0)  -->
<svg version="1.1" id="Layer_1" xmlns="http://www.w3.org/2000/svg" xmlns:xlink="http://www.w3.org/1999/xlink" x="0px" y="0px"
	 viewBox="0 0 500 500" style="enable-background:new 0 0 500 500;" xml:space="preserve">
<style type="text/css">
	.st0{fill:none;stroke:#000000;stroke-width:12.8;stroke-linecap:round;stroke-miterlimit:10;}
</style>
<path class="st0" d="M252.1,459.71"/>
<path class="st0" d="M269.27,46.69h-50.75c-6.76,0-12.25-5.48-12.25-12.25v-8.8c0-6.76,5.48-12.25,12.25-12.25h50.75
	c6.76,0,12.25,5.48,12.25,12.25v8.8C281.52,41.21,276.03,46.69,269.27,46.69z"/>
<path class="st0" d="M246.06,160.65h-64.02c-9.64,0-17.46-7.82-17.46-17.46v-14.41c0-4.75,1.74-9.34,4.89-12.9l43.72-49.34
	c1.27-1.43,3.1-2.26,5.01-2.26h51.38c2.59,0,5.05,1.11,6.77,3.05l42.7,48.24c3.01,3.4,4.68,7.79,4.68,12.34v16.76
	c0,8.82-7.15,15.97-15.97,15.97h-20.3"/>
<path class="st0" d="M179.74,160.65L179.74,160.65c-8.37,0-15.16,6.79-15.16,15.16v61.85c0,9.04,7.33,16.38,16.38,16.38h63.2"/>
<path class="st0" d="M307.77,160.65L307.77,160.65c8.82,0,15.97,7.15,15.97,15.97v61.51c0,8.78-7.12,15.9-15.9,15.9H289.1"/>
<path class="st0" d="M194.36,254.03h-11.64c-10.02,0-18.14,8.12-18.14,18.14v18.41c0,8.52,6.91,15.43,15.43,15.43h64.15"/>
<path class="st0" d="M294.78,254.03h11.5c9.64,0,17.46,7.82,17.46,17.46v17.19c0,9.57-7.76,17.32-17.32,17.32H289.1"/>
<path class="st0" d="M180.01,306L180.01,306c-8.52,0-15.43,6.91-15.43,15.43v19.89c0,9.19,7.45,16.65,16.65,16.65h62.93"/>
<path class="st0" d="M306.42,306h1.83c8.56,0,15.5,6.94,15.5,15.5v19.42c0,9.42-7.63,17.05-17.05,17.05H289.1"/>
<path class="st0" d="M181.23,357.97L181.23,357.97c-9.19,0-16.65,7.45-16.65,16.65v58.47c0,18.31,14.85,33.16,33.16,33.16h94.74
	c17.27,0,31.26-14,31.26-31.26v-59.95c0-9.42-7.63-17.05-17.05-17.05h0"/>
</svg>
