<?xml version="1.0" encoding="utf-8"?>
<!-- Generator: Adobe Illustrator 27.3.1, SVG Export Plug-In . SVG Version: 6.00 Build 0)  -->
<svg version="1.1" id="Layer_1" xmlns="http://www.w3.org/2000/svg" xmlns:xlink="http://www.w3.org/1999/xlink" x="0px" y="0px"
	 viewBox="0 0 500 500" style="enable-background:new 0 0 500 500;" xml:space="preserve">
<style type="text/css">
	.st0{fill:none;stroke:#000000;stroke-width:12.8;stroke-linecap:round;stroke-miterlimit:10;}
</style>
<polyline class="st0" points="252.1,459.71 252.1,214.47 252.1,125.96 "/>
<line class="st0" x1="312.52" y1="159.25" x2="252.1" y2="214.47"/>
<line class="st0" x1="282.31" y1="279.44" x2="252.1" y2="308.67"/>
<line class="st0" x1="190.72" y1="218.53" x2="252.1" y2="279.44"/>
<path class="st0" d="M312.52,307.86c9.44,2.04,30.75,5.29,55.22-3.25c8.34-2.91,34.16-12.35,50.35-38.98
	c17.4-28.61,17.11-66.26,0-94.2c-2.99-4.89-23.62-37.44-54.41-40.6c-8.84-0.91-21.4-2.65-22.74-4.87
	c-1.49-2.48-0.47-21.09-6.5-34.92c-13.8-31.67-47.37-43.64-52.78-45.47c-7.35-2.5-40.63-12.77-73.89,5.68
	c-4.42,2.45-39,19.07-41.12,48.43c-0.8,11.11-1.37,26.39-2.73,28.72c-1.62,2.77-16.17,2.51-26.8,3.25
	c-26.81,1.86-49.03,32.76-57.65,56.03c-0.8,2.16-17.3,49.02,11.37,86.89c19.18,25.34,47.3,31.75,57.65,34.11
	c19.27,4.39,35.66,2.63,45.47,0.81"/>
</svg>
