<?xml version="1.0" encoding="utf-8"?>
<!-- Generator: Adobe Illustrator 27.3.1, SVG Export Plug-In . SVG Version: 6.00 Build 0)  -->
<svg version="1.1" id="Layer_1" xmlns="http://www.w3.org/2000/svg" xmlns:xlink="http://www.w3.org/1999/xlink" x="0px" y="0px"
	 viewBox="0 0 644.63 704.96" style="enable-background:new 0 0 644.63 704.96;" xml:space="preserve">
<style type="text/css">
	.st0{fill:none;stroke:#000000;stroke-width:12.8;stroke-miterlimit:10;}
	.st1{fill:none;stroke:#000000;stroke-width:12.8;stroke-linecap:round;stroke-miterlimit:10;}
</style>
<path class="st0" d="M83.66,672.15V464.59c0-2.7,1.48-5.17,3.86-6.44l123.43-66.07c4.87-2.61,10.76,0.92,10.76,6.44v30.9
	c0,5.3,5.47,8.84,10.31,6.66l125.55-56.5c4.84-2.18,10.31,1.36,10.31,6.66v45.54c0,4.04,3.27,7.31,7.31,7.31l0,0
	c4.04,0,7.31,3.27,7.31,7.31v5.46c0,9.16,13.43,9.99,14.56,0.9l25.24-202.96c0.46-3.66,3.56-6.41,7.25-6.41h56.59
	c3.83,0,7,2.95,7.29,6.77l31.39,421.44c0.32,4.24-3.04,7.85-7.29,7.85H90.97C86.94,679.46,83.66,676.19,83.66,672.15z"/>
<path class="st0" d="M155.71,517.05h-7.67c-2.37,0-4.29-1.92-4.29-4.29v-26.35c0-2.37,1.92-4.29,4.29-4.29h7.67
	c2.37,0,4.29,1.92,4.29,4.29v26.35C159.99,515.14,158.08,517.05,155.71,517.05z"/>
<path class="st0" d="M285.45,598.98h-7.67c-2.37,0-4.29-1.92-4.29-4.29v-26.35c0-2.37,1.92-4.29,4.29-4.29h7.67
	c2.37,0,4.29,1.92,4.29,4.29v26.35C289.74,597.06,287.82,598.98,285.45,598.98z"/>
<path class="st0" d="M285.45,517.05h-7.67c-2.37,0-4.29-1.92-4.29-4.29v-26.35c0-2.37,1.92-4.29,4.29-4.29h7.67
	c2.37,0,4.29,1.92,4.29,4.29v26.35C289.74,515.14,287.82,517.05,285.45,517.05z"/>
<path class="st0" d="M220.58,598.98h-7.67c-2.37,0-4.29-1.92-4.29-4.29v-26.35c0-2.37,1.92-4.29,4.29-4.29h7.67
	c2.37,0,4.29,1.92,4.29,4.29v26.35C224.87,597.06,222.95,598.98,220.58,598.98z"/>
<path class="st0" d="M220.58,517.05h-7.67c-2.37,0-4.29-1.92-4.29-4.29v-26.35c0-2.37,1.92-4.29,4.29-4.29h7.67
	c2.37,0,4.29,1.92,4.29,4.29v26.35C224.87,515.14,222.95,517.05,220.58,517.05z"/>
<path class="st0" d="M155.71,598.98h-7.67c-2.37,0-4.29-1.92-4.29-4.29v-26.35c0-2.37,1.92-4.29,4.29-4.29h7.67
	c2.37,0,4.29,1.92,4.29,4.29v26.35C159.99,597.06,158.08,598.98,155.71,598.98z"/>
<path class="st1" d="M431.91,208.48c-7.03-10.97-15.2-27.66-14.59-47.86c0.62-20.4,9.86-32.85,16.3-47.86
	c7.97-18.56,14.16-46.79,3.43-87.27"/>
<path class="st1" d="M482.9,208.48c-7.03-10.97-15.2-27.66-14.59-47.86c0.62-20.4,9.86-32.85,16.3-47.86
	c7.97-18.56,14.16-46.79,3.43-87.27"/>
<path class="st1" d="M457.41,208.48c-7.04-10.97-15.2-27.66-14.59-47.86c0.62-20.4,9.86-32.85,16.3-47.86
	c7.97-18.56,14.16-46.79,3.43-87.27"/>
</svg>
